<svg width="660" height="140" viewBox="0 0 660 140" fill="none" xmlns="http://www.w3.org/2000/svg">
<path d="M0 0H660V140H0V0Z" fill="#190B62"/>
<path fill-rule="evenodd" clip-rule="evenodd" d="M110.391 50.6613C115.508 49.7999 120 53.7992 120 58.8352V97.6475C120 101.715 117.088 105.128 113.184 105.878C110.01 106.488 103.825 107.781 97.0844 109.749C90.2593 111.741 83.2481 114.315 78.2069 117.373C75.4483 119.046 72.2222 120 70 120C67.7778 120 64.5516 119.046 61.7931 117.373C56.7519 114.315 49.7407 111.741 42.9156 109.749C36.1746 107.781 29.9901 106.488 26.8159 105.878C22.9119 105.128 20.0001 101.715 20 97.6475V58.8352C20 53.7993 24.4919 49.7999 29.6094 50.6613L29.8535 50.7058L30.7004 50.8756C35.1403 51.7763 42.6035 53.4578 50.2441 55.9342C56.9513 58.1081 64.4081 61.0814 70.0011 65.0282C75.5939 61.0819 83.0492 58.1079 89.7559 55.9342C97.9059 53.2928 105.854 51.5556 110.146 50.7058L110.391 50.6613ZM31.1111 95.4057C34.7462 96.1516 40.175 97.3743 46.0281 99.0825C47.8951 99.6273 49.832 100.229 51.7872 100.889C57.7086 102.888 64.4444 98.6675 64.4444 92.4179V82.8952C64.4444 77.7459 62.079 72.8007 57.4202 70.6074C54.2576 69.1185 50.6285 67.7394 46.818 66.5044C41.0384 64.6312 35.3122 63.2326 31.1111 62.3166V95.4057ZM108.889 62.3166C104.688 63.2326 98.9616 64.6312 93.182 66.5044C89.3715 67.7394 85.7424 69.1185 82.5798 70.6074C77.9209 72.8007 75.5556 77.7459 75.5556 82.8952V92.4179C75.5556 98.6675 82.2914 102.888 88.2128 100.889C90.168 100.229 92.1049 99.6273 93.9719 99.0825C99.825 97.3743 105.254 96.1516 108.889 95.4057V62.3166Z" fill="white"/>
<path d="M83.8889 33.8889C83.8889 41.5595 77.6706 47.7777 70 47.7777C62.3294 47.7777 56.1111 41.5595 56.1111 33.8889C56.1111 26.2183 62.3294 20 70 20C77.6706 20 83.8889 26.2183 83.8889 33.8889Z" fill="white"/>
<path d="M146.218 68.8766V61.8699H158.971C162.868 61.8699 165.819 60.845 167.825 58.7953C169.85 56.7258 170.863 53.8679 170.863 50.2217V49.66C170.863 46.0138 169.85 43.1757 167.825 41.1456C165.819 39.1155 162.868 38.1005 158.971 38.1005H146.132V31.0939H159.2C165.848 31.0939 170.901 32.7002 174.359 35.9128C177.817 39.1057 179.546 43.6782 179.546 49.6305V50.1922C179.546 56.2035 177.817 60.8253 174.359 64.0576C170.901 67.2703 165.848 68.8766 159.2 68.8766H146.218ZM140 68.8766V31.0939H148.368V68.8766H140Z" fill="white"/>
<path d="M187.07 68.8766V31.0939H195.323V68.8766H187.07ZM187.271 68.8766V62.0769H221.344V68.8766H187.271ZM191.369 53.0007V46.4375H220.255V53.0007H191.369ZM187.271 37.8936V31.0939H220.885V37.8936H187.271Z" fill="white"/>
<path d="M245.402 69.8226C242.957 69.8226 240.674 69.6354 238.553 69.2609C236.433 68.9061 234.513 68.4627 232.794 67.9305C231.093 67.3787 229.622 66.8465 228.38 66.3341L227.492 58.3222C229.67 59.3865 232.316 60.372 235.43 61.2786C238.544 62.1656 241.859 62.609 245.374 62.609C248.851 62.609 251.353 62.2444 252.882 61.5152C254.41 60.7662 255.174 59.5935 255.174 57.997V57.9084C255.174 56.8046 254.849 55.9374 254.2 55.3067C253.55 54.676 252.423 54.1833 250.818 53.8285C249.233 53.4541 247.026 53.1387 244.199 52.8825C240.206 52.508 236.968 51.9167 234.484 51.1087C232.001 50.2809 230.186 49.0884 229.04 47.5314C227.912 45.9744 227.349 43.9246 227.349 41.3821V41.2343C227.349 37.5881 228.753 34.8386 231.561 32.986C234.389 31.1136 238.659 30.1774 244.371 30.1774C248.153 30.1774 251.392 30.5026 254.085 31.153C256.798 31.8034 259.071 32.5425 260.905 33.3703L261.851 40.6726C259.635 39.628 257.104 38.7706 254.257 38.1005C251.43 37.4304 248.392 37.0953 245.144 37.0953C242.776 37.0953 240.922 37.2727 239.585 37.6275C238.248 37.9626 237.312 38.4356 236.777 39.0466C236.242 39.6576 235.974 40.4065 235.974 41.2934V41.323C235.974 42.2296 236.242 42.9884 236.777 43.5994C237.312 44.2104 238.353 44.7228 239.9 45.1367C241.448 45.5309 243.731 45.8758 246.749 46.1715C250.666 46.5459 253.885 47.1077 256.406 47.8566C258.928 48.5859 260.791 49.7191 261.994 51.2565C263.217 52.7741 263.828 54.9027 263.828 57.6423V57.8492C263.828 61.9488 262.31 64.9741 259.272 66.9254C256.234 68.8569 251.611 69.8226 245.402 69.8226Z" fill="white"/>
<path d="M267.327 68.8766L283.69 31.0939H296.098L312.317 68.8766H303.634L290.338 36.4745H289.45L276.01 68.8766H267.327ZM278.245 59.3274V52.5573H301.371V59.3274H278.245Z" fill="white"/>
<path d="M326.493 68.8766H318.097V31.0939H326.493V68.8766Z" fill="white"/>
<path d="M371.255 70C364.11 70 358.713 68.2656 355.064 64.7968C351.415 61.3082 349.59 56.4302 349.59 50.1626V49.6305C349.59 43.4614 351.386 38.6524 354.978 35.2033C358.589 31.7344 363.909 30 370.939 30C373.022 30 374.932 30.1577 376.671 30.473C378.428 30.7884 380.014 31.2023 381.428 31.7147C382.841 32.2271 384.083 32.7889 385.153 33.3999L385.898 40.7908C384.102 39.8054 382.058 38.948 379.766 38.2188C377.492 37.4895 374.856 37.1249 371.856 37.1249C367.386 37.1249 364.024 38.2286 361.769 40.4361C359.534 42.6238 358.417 45.6787 358.417 49.6009V50.1035C358.417 54.065 359.553 57.1594 361.827 59.3866C364.1 61.6137 367.634 62.7273 372.43 62.7273C375.238 62.7273 377.788 62.3627 380.081 61.6334C382.392 60.9042 384.446 60.0567 386.242 59.0909L385.526 66.5706C384.475 67.1619 383.233 67.7236 381.8 68.2557C380.387 68.7682 378.801 69.1821 377.043 69.4974C375.286 69.8325 373.356 70 371.255 70Z" fill="white"/>
<path d="M402.303 68.8766H393.878V31.0939H402.303V68.8766ZM398.176 61.8995H425.887V68.8766H398.176V61.8995Z" fill="white"/>
<path d="M429.023 68.8766L445.386 31.0939H457.794L474.013 68.8766H465.331L452.034 36.4745H451.146L437.706 68.8766H429.023ZM439.941 59.3274V52.5573H463.067V59.3274H439.941Z" fill="white"/>
<path d="M495.53 69.8226C493.085 69.8226 490.802 69.6354 488.682 69.2609C486.561 68.9061 484.641 68.4627 482.922 67.9305C481.221 67.3787 479.75 66.8465 478.508 66.3341L477.62 58.3222C479.798 59.3865 482.444 60.372 485.558 61.2786C488.672 62.1656 491.987 62.609 495.502 62.609C498.979 62.609 501.481 62.2444 503.01 61.5152C504.538 60.7662 505.302 59.5935 505.302 57.997V57.9084C505.302 56.8046 504.977 55.9374 504.328 55.3067C503.678 54.676 502.551 54.1833 500.946 53.8285C499.361 53.4541 497.154 53.1387 494.327 52.8825C490.334 52.508 487.096 51.9167 484.612 51.1087C482.129 50.2809 480.314 49.0884 479.168 47.5314C478.04 45.9744 477.477 43.9246 477.477 41.3821V41.2343C477.477 37.5881 478.881 34.8386 481.689 32.986C484.517 31.1136 488.787 30.1774 494.499 30.1774C498.281 30.1774 501.52 30.5026 504.213 31.153C506.926 31.8034 509.2 32.5425 511.034 33.3703L511.979 40.6726C509.763 39.628 507.232 38.7706 504.385 38.1005C501.558 37.4304 498.52 37.0953 495.272 37.0953C492.904 37.0953 491.05 37.2727 489.713 37.6275C488.376 37.9626 487.44 38.4356 486.905 39.0466C486.37 39.6576 486.102 40.4065 486.102 41.2934V41.323C486.102 42.2296 486.37 42.9884 486.905 43.5994C487.44 44.2104 488.481 44.7228 490.028 45.1367C491.576 45.5309 493.859 45.8758 496.877 46.1715C500.794 46.5459 504.013 47.1077 506.534 47.8566C509.056 48.5859 510.919 49.7191 512.122 51.2565C513.345 52.7741 513.957 54.9027 513.957 57.6423V57.8492C513.957 61.9488 512.438 64.9741 509.4 66.9254C506.363 68.8569 501.739 69.8226 495.53 69.8226Z" fill="white"/>
<path d="M537.34 69.8226C534.894 69.8226 532.611 69.6354 530.491 69.2609C528.37 68.9061 526.45 68.4627 524.731 67.9305C523.031 67.3787 521.56 66.8465 520.318 66.3341L519.429 58.3222C521.607 59.3865 524.253 60.372 527.367 61.2786C530.481 62.1656 533.796 62.609 537.311 62.609C540.788 62.609 543.291 62.2444 544.819 61.5152C546.347 60.7662 547.112 59.5935 547.112 57.997V57.9084C547.112 56.8046 546.787 55.9374 546.137 55.3067C545.488 54.676 544.36 54.1833 542.756 53.8285C541.17 53.4541 538.964 53.1387 536.136 52.8825C532.143 52.508 528.905 51.9167 526.422 51.1087C523.938 50.2809 522.123 49.0884 520.977 47.5314C519.85 45.9744 519.286 43.9246 519.286 41.3821V41.2343C519.286 37.5881 520.69 34.8386 523.499 32.986C526.326 31.1136 530.596 30.1774 536.308 30.1774C540.091 30.1774 543.329 30.5026 546.023 31.153C548.735 31.8034 551.009 32.5425 552.843 33.3703L553.789 40.6726C551.572 39.628 549.041 38.7706 546.195 38.1005C543.367 37.4304 540.33 37.0953 537.082 37.0953C534.713 37.0953 532.86 37.2727 531.522 37.6275C530.185 37.9626 529.249 38.4356 528.714 39.0466C528.179 39.6576 527.912 40.4065 527.912 41.2934V41.323C527.912 42.2296 528.179 42.9884 528.714 43.5994C529.249 44.2104 530.29 44.7228 531.838 45.1367C533.385 45.5309 535.668 45.8758 538.687 46.1715C542.603 46.5459 545.822 47.1077 548.344 47.8566C550.866 48.5859 552.728 49.7191 553.932 51.2565C555.154 52.7741 555.766 54.9027 555.766 57.6423V57.8492C555.766 61.9488 554.247 64.9741 551.209 66.9254C548.172 68.8569 543.549 69.8226 537.34 69.8226Z" fill="white"/>
<path d="M563.242 68.8766V31.0939H571.495V68.8766H563.242ZM563.443 68.8766V62.0769H597.515V68.8766H563.443ZM567.54 53.0007V46.4375H596.426V53.0007H567.54ZM563.443 37.8936V31.0939H597.057V37.8936H563.443Z" fill="white"/>
<path d="M621.574 69.8226C619.129 69.8226 616.846 69.6354 614.725 69.2609C612.604 68.9061 610.684 68.4627 608.965 67.9305C607.265 67.3787 605.794 66.8465 604.552 66.3341L603.664 58.3222C605.842 59.3865 608.488 60.372 611.602 61.2786C614.715 62.1656 618.03 62.609 621.545 62.609C625.022 62.609 627.525 62.2444 629.053 61.5152C630.582 60.7662 631.346 59.5935 631.346 57.997V57.9084C631.346 56.8046 631.021 55.9374 630.371 55.3067C629.722 54.676 628.595 54.1833 626.99 53.8285C625.404 53.4541 623.198 53.1387 620.37 52.8825C616.378 52.508 613.139 51.9167 610.656 51.1087C608.172 50.2809 606.357 49.0884 605.211 47.5314C604.084 45.9744 603.52 43.9246 603.52 41.3821V41.2343C603.52 37.5881 604.925 34.8386 607.733 32.986C610.56 31.1136 614.83 30.1774 620.542 30.1774C624.325 30.1774 627.563 30.5026 630.257 31.153C632.97 31.8034 635.243 32.5425 637.077 33.3703L638.023 40.6726C635.807 39.628 633.275 38.7706 630.429 38.1005C627.601 37.4304 624.564 37.0953 621.316 37.0953C618.947 37.0953 617.094 37.2727 615.757 37.6275C614.419 37.9626 613.483 38.4356 612.948 39.0466C612.413 39.6576 612.146 40.4065 612.146 41.2934V41.323C612.146 42.2296 612.413 42.9884 612.948 43.5994C613.483 44.2104 614.524 44.7228 616.072 45.1367C617.619 45.5309 619.902 45.8758 622.921 46.1715C626.837 46.5459 630.056 47.1077 632.578 47.8566C635.1 48.5859 636.962 49.7191 638.166 51.2565C639.389 52.7741 640 54.9027 640 57.6423V57.8492C640 61.9488 638.481 64.9741 635.444 66.9254C632.406 68.8569 627.783 69.8226 621.574 69.8226Z" fill="white"/>
<path d="M148.58 110C145.762 110 143.628 109.137 142.177 107.411C140.726 105.675 140 103.239 140 100.104V99.8214C140 96.7262 140.714 94.3155 142.142 92.5893C143.578 90.8631 145.677 90 148.441 90C149.328 90 150.135 90.0893 150.861 90.2679C151.594 90.4464 152.246 90.6796 152.817 90.9673C153.396 91.245 153.89 91.5377 154.3 91.8452L154.531 94.8214C153.813 94.2659 152.968 93.7798 151.995 93.3631C151.031 92.9464 149.896 92.7381 148.591 92.7381C146.662 92.7381 145.195 93.3581 144.191 94.5982C143.188 95.8383 142.686 97.5744 142.686 99.8065V100.089C142.686 102.341 143.192 104.097 144.203 105.357C145.222 106.607 146.754 107.232 148.8 107.232C150.027 107.232 151.131 107.029 152.111 106.622C153.099 106.205 153.956 105.719 154.682 105.164L154.462 108.14C154.053 108.447 153.559 108.745 152.98 109.033C152.401 109.311 151.745 109.539 151.011 109.717C150.278 109.906 149.467 110 148.58 110Z" fill="white"/>
<path d="M160.705 109.509H158.123V90.4911H160.705V109.509ZM159.443 106.786H170.778V109.509H159.443V106.786Z" fill="white"/>
<path d="M172.264 109.509L179.107 90.4911H182.998L189.794 109.509H187.12L181.238 92.5744H180.867L174.939 109.509H172.264ZM176.271 104.241V101.562H185.788V104.241H176.271Z" fill="white"/>
<path d="M204.655 109.509L204.157 106.414C204.025 105.561 203.848 104.846 203.624 104.271C203.4 103.686 203.061 103.244 202.605 102.946C202.15 102.649 201.505 102.5 200.672 102.5L194.211 102.485V99.9256L201.193 99.9107C202.32 99.9107 203.145 99.6032 203.67 98.9881C204.195 98.3631 204.458 97.5446 204.458 96.5327V96.369C204.458 95.3671 204.203 94.5784 203.694 94.003C203.192 93.4276 202.377 93.1399 201.25 93.1399H194.211V90.4911H201.551C203.458 90.4911 204.855 90.9623 205.743 91.9048C206.631 92.8472 207.074 94.1617 207.074 95.8482V96.0565C207.074 97.3661 206.808 98.4028 206.276 99.1667C205.751 99.9306 204.925 100.412 203.798 100.61V101.012L202.489 100.521C203.493 100.58 204.269 100.823 204.817 101.25C205.372 101.667 205.793 102.257 206.079 103.021C206.364 103.775 206.596 104.697 206.773 105.789L207.399 109.509H204.655ZM192.474 109.509V90.4911H195.01V109.509H192.474Z" fill="white"/>
<path d="M213.329 109.509H210.747V90.4911H213.329V109.509Z" fill="white"/>
<path d="M222.831 109.509V91.5476H225.413V109.509H222.831ZM216.474 93.1845V90.4911H231.77V93.1845H216.474Z" fill="white"/>
<path d="M240.422 104.092L233.185 90.4911H236.103L241.453 100.714H241.626L243.143 97.8274L246.976 90.4911H249.893L242.668 104.092H240.422ZM240.26 109.509V101.28H242.83V109.509H240.26Z" fill="white"/>
<path d="M259.669 109.866C259.128 109.866 258.723 109.702 258.453 109.375C258.19 109.048 258.059 108.596 258.059 108.021V107.961C258.059 107.386 258.19 106.935 258.453 106.607C258.723 106.28 259.128 106.116 259.669 106.116C260.217 106.116 260.622 106.28 260.884 106.607C261.155 106.935 261.29 107.386 261.29 107.961V108.021C261.29 108.596 261.155 109.048 260.884 109.375C260.622 109.702 260.217 109.866 259.669 109.866Z" fill="white"/>
<path d="M278.884 110C276.066 110 273.932 109.137 272.481 107.411C271.03 105.675 270.304 103.239 270.304 100.104V99.8214C270.304 96.7262 271.018 94.3155 272.446 92.5893C273.882 90.8631 275.982 90 278.745 90C279.633 90 280.439 90.0893 281.165 90.2679C281.898 90.4464 282.55 90.6796 283.122 90.9673C283.701 91.245 284.195 91.5377 284.604 91.8452L284.835 94.8214C284.117 94.2659 283.272 93.7798 282.3 93.3631C281.335 92.9464 280.2 92.7381 278.895 92.7381C276.966 92.7381 275.499 93.3581 274.496 94.5982C273.492 95.8383 272.99 97.5744 272.99 99.8065V100.089C272.99 102.341 273.496 104.097 274.507 105.357C275.526 106.607 277.058 107.232 279.104 107.232C280.331 107.232 281.435 107.029 282.415 106.622C283.403 106.205 284.26 105.719 284.986 105.164L284.766 108.14C284.357 108.447 283.863 108.745 283.284 109.033C282.705 109.311 282.049 109.539 281.315 109.717C280.582 109.906 279.772 110 278.884 110Z" fill="white"/>
<path d="M295.73 110C292.99 110 290.886 109.142 289.42 107.426C287.953 105.699 287.22 103.264 287.22 100.119V99.8661C287.22 96.7212 287.953 94.2907 289.42 92.5744C290.886 90.8581 292.99 90 295.73 90C298.478 90 300.581 90.8581 302.04 92.5744C303.507 94.2907 304.24 96.7212 304.24 99.8661V100.119C304.24 103.264 303.507 105.699 302.04 107.426C300.581 109.142 298.478 110 295.73 110ZM295.73 107.277C297.652 107.277 299.103 106.647 300.084 105.387C301.064 104.117 301.554 102.366 301.554 100.134V99.8512C301.554 97.629 301.064 95.8879 300.084 94.628C299.103 93.3581 297.652 92.7232 295.73 92.7232C293.8 92.7232 292.345 93.3581 291.365 94.628C290.392 95.8879 289.906 97.629 289.906 99.8512V100.134C289.906 102.366 290.392 104.117 291.365 105.387C292.345 106.647 293.8 107.277 295.73 107.277Z" fill="white"/>
<path d="M311.435 90.4911L320.246 106.265H320.454L320.362 98.7202V90.4911H322.932V109.509H319.32L310.369 93.4673H310.161L310.254 101.622V109.509H307.672V90.4911H311.435Z" fill="white"/>
<path d="M333.498 109.94C332.463 109.94 331.51 109.836 330.638 109.628C329.773 109.43 329.001 109.182 328.322 108.884C327.643 108.586 327.068 108.299 326.597 108.021L326.319 104.821C327.168 105.397 328.214 105.923 329.457 106.399C330.707 106.875 332.054 107.113 333.498 107.113C335.057 107.113 336.199 106.875 336.925 106.399C337.651 105.913 338.013 105.169 338.013 104.167V104.137C338.013 103.452 337.867 102.912 337.573 102.515C337.288 102.108 336.786 101.796 336.068 101.577C335.35 101.359 334.354 101.186 333.081 101.057C331.421 100.888 330.097 100.6 329.109 100.193C328.121 99.7768 327.411 99.1915 326.979 98.4375C326.547 97.6736 326.331 96.6915 326.331 95.4911V95.4315C326.331 93.6855 326.875 92.3561 327.963 91.4435C329.059 90.5308 330.734 90.0744 332.988 90.0744C334.54 90.0744 335.864 90.253 336.96 90.6101C338.056 90.9673 338.951 91.3542 339.646 91.7708L339.935 94.6875C339.094 94.1518 338.102 93.7004 336.96 93.3333C335.825 92.9663 334.574 92.7827 333.208 92.7827C332.158 92.7827 331.325 92.8919 330.707 93.1101C330.097 93.3185 329.661 93.621 329.399 94.0179C329.136 94.4048 329.005 94.876 329.005 95.4315V95.4464C329.005 96.0119 329.129 96.4881 329.376 96.875C329.623 97.252 330.094 97.5645 330.788 97.8125C331.483 98.0506 332.506 98.249 333.857 98.4077C335.478 98.5863 336.79 98.8641 337.793 99.2411C338.804 99.6081 339.542 100.174 340.005 100.938C340.468 101.691 340.7 102.738 340.7 104.077V104.152C340.7 106.126 340.101 107.584 338.905 108.527C337.708 109.469 335.906 109.94 333.498 109.94Z" fill="white"/>
<path d="M346.731 109.509H344.149V90.4911H346.731V109.509Z" fill="white"/>
<path d="M357.333 109.94C356.299 109.94 355.346 109.836 354.473 109.628C353.609 109.43 352.837 109.182 352.158 108.884C351.478 108.586 350.903 108.299 350.432 108.021L350.155 104.821C351.004 105.397 352.05 105.923 353.292 106.399C354.543 106.875 355.89 107.113 357.333 107.113C358.892 107.113 360.035 106.875 360.76 106.399C361.486 105.913 361.849 105.169 361.849 104.167V104.137C361.849 103.452 361.702 102.912 361.409 102.515C361.123 102.108 360.622 101.796 359.904 101.577C359.186 101.359 358.19 101.186 356.916 101.057C355.257 100.888 353.933 100.6 352.945 100.193C351.957 99.7768 351.247 99.1915 350.814 98.4375C350.382 97.6736 350.166 96.6915 350.166 95.4911V95.4315C350.166 93.6855 350.71 92.3561 351.799 91.4435C352.895 90.5308 354.57 90.0744 356.824 90.0744C358.375 90.0744 359.699 90.253 360.795 90.6101C361.891 90.9673 362.787 91.3542 363.481 91.7708L363.771 94.6875C362.93 94.1518 361.938 93.7004 360.795 93.3333C359.661 92.9663 358.41 92.7827 357.044 92.7827C355.994 92.7827 355.16 92.8919 354.543 93.1101C353.933 93.3185 353.497 93.621 353.234 94.0179C352.972 94.4048 352.841 94.876 352.841 95.4315V95.4464C352.841 96.0119 352.964 96.4881 353.211 96.875C353.458 97.252 353.929 97.5645 354.624 97.8125C355.319 98.0506 356.341 98.249 357.692 98.4077C359.313 98.5863 360.625 98.8641 361.629 99.2411C362.64 99.6081 363.377 100.174 363.84 100.938C364.304 101.691 364.535 102.738 364.535 104.077V104.152C364.535 106.126 363.937 107.584 362.74 108.527C361.544 109.469 359.742 109.94 357.333 109.94Z" fill="white"/>
<path d="M372.516 109.509V91.5476H375.098V109.509H372.516ZM366.159 93.1845V90.4911H381.454V93.1845H366.159Z" fill="white"/>
<path d="M384.561 109.509V90.4911H387.096V109.509H384.561ZM384.688 109.509V106.815H398.003V109.509H384.688ZM385.881 101.176V98.5268H397.575V101.176H385.881ZM384.688 93.1845V90.4911H397.841V93.1845H384.688Z" fill="white"/>
<path d="M405.375 90.4911L414.186 106.265H414.395L414.302 98.7202V90.4911H416.872V109.509H413.26L404.31 93.4673H404.101L404.194 101.622V109.509H401.612V90.4911H405.375Z" fill="white"/>
<path d="M428.885 110C426.068 110 423.933 109.137 422.482 107.411C421.031 105.675 420.305 103.239 420.305 100.104V99.8214C420.305 96.7262 421.019 94.3155 422.448 92.5893C423.883 90.8631 425.983 90 428.746 90C429.634 90 430.441 90.0893 431.166 90.2679C431.899 90.4464 432.552 90.6796 433.123 90.9673C433.702 91.245 434.196 91.5377 434.605 91.8452L434.837 94.8214C434.119 94.2659 433.273 93.7798 432.301 93.3631C431.336 92.9464 430.201 92.7381 428.897 92.7381C426.967 92.7381 425.5 93.3581 424.497 94.5982C423.493 95.8383 422.992 97.5744 422.992 99.8065V100.089C422.992 102.341 423.497 104.097 424.508 105.357C425.527 106.607 427.06 107.232 429.105 107.232C430.332 107.232 431.436 107.029 432.417 106.622C433.405 106.205 434.261 105.719 434.987 105.164L434.767 108.14C434.358 108.447 433.864 108.745 433.285 109.033C432.706 109.311 432.05 109.539 431.317 109.717C430.583 109.906 429.773 110 428.885 110Z" fill="white"/>
<path d="M443.703 104.092L436.466 90.4911H439.384L444.733 100.714H444.907L446.424 97.8274L450.256 90.4911H453.174L445.949 104.092H443.703ZM443.541 109.509V101.28H446.111V109.509H443.541Z" fill="white"/>
<path d="M462.95 109.866C462.409 109.866 462.004 109.702 461.734 109.375C461.471 109.048 461.34 108.596 461.34 108.021V107.961C461.34 107.386 461.471 106.935 461.734 106.607C462.004 106.28 462.409 106.116 462.95 106.116C463.498 106.116 463.903 106.28 464.165 106.607C464.435 106.935 464.571 107.386 464.571 107.961V108.021C464.571 108.596 464.435 109.048 464.165 109.375C463.903 109.702 463.498 109.866 462.95 109.866Z" fill="white"/>
<path d="M482.165 110C479.347 110 477.213 109.137 475.762 107.411C474.311 105.675 473.585 103.239 473.585 100.104V99.8214C473.585 96.7262 474.299 94.3155 475.727 92.5893C477.163 90.8631 479.262 90 482.026 90C482.913 90 483.72 90.0893 484.446 90.2679C485.179 90.4464 485.831 90.6796 486.402 90.9673C486.981 91.245 487.475 91.5377 487.885 91.8452L488.116 94.8214C487.398 94.2659 486.553 93.7798 485.58 93.3631C484.616 92.9464 483.481 92.7381 482.176 92.7381C480.247 92.7381 478.78 93.3581 477.776 94.5982C476.773 95.8383 476.271 97.5744 476.271 99.8065V100.089C476.271 102.341 476.777 104.097 477.788 105.357C478.807 106.607 480.339 107.232 482.385 107.232C483.612 107.232 484.716 107.029 485.696 106.622C486.684 106.205 487.541 105.719 488.267 105.164L488.047 108.14C487.638 108.447 487.143 108.745 486.565 109.033C485.986 109.311 485.33 109.539 484.596 109.717C483.863 109.906 483.052 110 482.165 110Z" fill="white"/>
<path d="M499.011 110C496.271 110 494.167 109.142 492.701 107.426C491.234 105.699 490.501 103.264 490.501 100.119V99.8661C490.501 96.7212 491.234 94.2907 492.701 92.5744C494.167 90.8581 496.271 90 499.011 90C501.759 90 503.862 90.8581 505.321 92.5744C506.788 94.2907 507.521 96.7212 507.521 99.8661V100.119C507.521 103.264 506.788 105.699 505.321 107.426C503.862 109.142 501.759 110 499.011 110ZM499.011 107.277C500.933 107.277 502.384 106.647 503.364 105.387C504.345 104.117 504.835 102.366 504.835 100.134V99.8512C504.835 97.629 504.345 95.8879 503.364 94.628C502.384 93.3581 500.933 92.7232 499.011 92.7232C497.081 92.7232 495.626 93.3581 494.646 94.628C493.673 95.8879 493.187 97.629 493.187 99.8512V100.134C493.187 102.366 493.673 104.117 494.646 105.387C495.626 106.647 497.081 107.277 499.011 107.277Z" fill="white"/>
<path d="M514.716 90.4911L523.527 106.265H523.735L523.643 98.7202V90.4911H526.213V109.509H522.601L513.65 93.4673H513.442L513.535 101.622V109.509H510.952V90.4911H514.716Z" fill="white"/>
<path d="M530.491 109.509V90.4911H533.039V109.509H530.491ZM531.811 102.098V99.4048H543.193V102.098H531.811ZM530.619 93.1845V90.4911H543.425V93.1845H530.619Z" fill="white"/>
<path d="M549.447 109.509H546.865V90.4911H549.447V109.509Z" fill="white"/>
<path d="M555.672 109.509V106.815H561.091C562.889 106.815 564.256 106.23 565.19 105.06C566.131 103.889 566.602 102.242 566.602 100.119V99.8363C566.602 97.7133 566.131 96.0764 565.19 94.9256C564.256 93.7649 562.889 93.1845 561.091 93.1845H555.603V90.4911H561.172C563.812 90.4911 565.823 91.2996 567.204 92.9167C568.586 94.5238 569.277 96.8254 569.277 99.8214V100.119C569.277 103.135 568.586 105.456 567.204 107.083C565.823 108.7 563.812 109.509 561.172 109.509H555.672ZM553.762 109.509V90.4911H556.344V109.509H553.762Z" fill="white"/>
<path d="M572.69 109.509V90.4911H575.225V109.509H572.69ZM572.817 109.509V106.815H586.133V109.509H572.817ZM574.01 101.176V98.5268H585.704V101.176H574.01ZM572.817 93.1845V90.4911H585.97V93.1845H572.817Z" fill="white"/>
<path d="M593.504 90.4911L602.315 106.265H602.524L602.431 98.7202V90.4911H605.002V109.509H601.389L592.439 93.4673H592.23L592.323 101.622V109.509H589.741V90.4911H593.504Z" fill="white"/>
<path d="M617.014 110C614.197 110 612.063 109.137 610.611 107.411C609.16 105.675 608.435 103.239 608.435 100.104V99.8214C608.435 96.7262 609.149 94.3155 610.577 92.5893C612.012 90.8631 614.112 90 616.875 90C617.763 90 618.57 90.0893 619.295 90.2679C620.029 90.4464 620.681 90.6796 621.252 90.9673C621.831 91.245 622.325 91.5377 622.734 91.8452L622.966 94.8214C622.248 94.2659 621.403 93.7798 620.43 93.3631C619.465 92.9464 618.33 92.7381 617.026 92.7381C615.096 92.7381 613.63 93.3581 612.626 94.5982C611.623 95.8383 611.121 97.5744 611.121 99.8065V100.089C611.121 102.341 611.627 104.097 612.638 105.357C613.657 106.607 615.189 107.232 617.234 107.232C618.462 107.232 619.566 107.029 620.546 106.622C621.534 106.205 622.391 105.719 623.116 105.164L622.896 108.14C622.487 108.447 621.993 108.745 621.414 109.033C620.835 109.311 620.179 109.539 619.446 109.717C618.713 109.906 617.902 110 617.014 110Z" fill="white"/>
<path d="M626.557 109.509V90.4911H629.093V109.509H626.557ZM626.685 109.509V106.815H640V109.509H626.685ZM627.877 101.176V98.5268H639.572V101.176H627.877ZM626.685 93.1845V90.4911H639.838V93.1845H626.685Z" fill="white"/>
</svg>
